<svg width="128" height="128" viewBox="0 0 128 128" fill="none" xmlns="http://www.w3.org/2000/svg">
<g clip-path="url(#clip0_1_10)">
<path d="M65.1361 0C30.4697 0 2.2665 27.9913 2.2665 62.3971C2.2665 73.5252 5.24458 84.4181 10.8861 93.9516L0.0880074 125.804C-0.113135 126.398 0.0364749 127.055 0.475748 127.502C0.792839 127.825 1.22297 128 1.66224 128C1.83055 128 2.00011 127.975 2.16551 127.922L35.379 117.368C44.4679 122.224 54.7403 124.787 65.1365 124.787C99.7996 124.788 128 96.7992 128 62.3971C128 27.9913 99.7996 0 65.1361 0ZM65.1361 111.79C55.3537 111.79 45.8788 108.965 37.7341 103.621C37.4603 103.441 37.1423 103.348 36.8223 103.348C36.6532 103.348 36.4836 103.374 36.3187 103.426L19.6807 108.715L25.0517 92.8694C25.2255 92.3566 25.1386 91.791 24.8186 91.3538C18.6164 82.8792 15.3379 72.8665 15.3379 62.3971C15.3379 35.1584 37.6772 12.9978 65.1357 12.9978C92.5909 12.9978 114.928 35.1584 114.928 62.3971C114.928 89.6324 92.5917 111.79 65.1361 111.79Z" fill="#0DC143"/>
<path d="M84.532 50.1966C83.5435 44.393 82.4627 38.0881 82.134 36.2954C81.3298 31.9204 75.5689 29.4749 71.2884 32.6275C69.0441 34.283 67.0362 34.4012 65.972 34.4012C64.9078 34.4012 63.7277 34.6378 60.6556 32.6275C56.2071 29.7186 50.6141 31.9204 49.8101 36.2954C49.4813 38.0881 48.4005 44.393 47.412 50.1966C35.3839 51.703 27.2249 54.6333 27.2249 57.9985C27.2249 62.9082 44.5741 66.886 65.972 66.886C87.3724 66.886 104.719 62.9082 104.719 57.9985C104.719 54.6333 96.5601 51.703 84.532 50.1966Z" fill="#0DC143"/>
<path d="M43.7416 68.5084L44.8839 81.6029C50.872 82.6199 56.9521 83.1496 63.0017 83.2796L65.972 79.2286L68.9424 83.2796C74.9919 83.1496 81.0722 82.6199 87.0602 81.6029L88.2024 68.5084C80.8806 69.9249 73.3838 70.5517 65.972 70.5517C58.558 70.5517 51.0659 69.9249 43.7416 68.5084ZM55.4813 79.3374C50.4155 79.0986 50.0986 73.0159 50.0986 73.0159L61.4692 75.2366C61.4692 75.2366 60.5468 79.5785 55.4813 79.3374ZM81.8455 73.0159C81.8455 73.0159 81.5286 79.0986 76.4628 79.3374C71.3971 79.5787 70.4747 75.2366 70.4747 75.2366L81.8455 73.0159Z" fill="#0DC143"/>
<path d="M50.8426 88.7704C50.7574 88.6865 47.5838 85.4993 46.989 85.0226C46.7461 84.8281 46.4827 84.6292 46.1671 84.5206C45.6515 84.343 45.1302 84.4498 44.6198 84.8362C44.044 85.2694 42.4265 86.2159 41.9315 86.4946C41.8667 86.5315 41.7813 86.573 41.7432 86.5599C41.709 86.5481 41.2015 86.1023 41.0493 85.9633C37.5633 82.7811 35.9214 77.4498 35.7425 76.5845C35.7172 76.4603 35.7308 76.4125 35.7303 76.4123C35.7641 76.3628 35.9492 76.2727 36.0447 76.2262C36.3232 76.0929 36.6415 75.9004 36.9495 75.7142C37.0953 75.626 37.2414 75.5376 37.3832 75.4557C37.8256 75.1982 38.0644 74.9622 38.3411 74.6888L38.4856 74.5471C39.1557 73.8957 39.0444 73.113 39.0084 72.8602C38.98 72.6493 38.702 68.2193 38.6708 67.7532C38.5968 66.6289 38.2096 65.984 37.4527 65.7234C37.3825 65.6992 37.4527 65.7234 37.1539 65.6343C36.7901 65.5259 34.7489 65.1095 33.6988 65.3542C32.5851 65.6138 30.4049 66.913 29.2952 70.1358C28.2964 73.0365 29.2018 76.4117 29.6368 77.7265C29.6475 77.7596 29.6654 77.8254 29.6916 77.92C31.2089 83.3866 33.8699 87.967 37.1847 90.8175C40.376 93.5616 42.0685 94.3345 43.0639 94.6773L43.0641 94.6773C43.4824 94.8214 43.8285 94.904 44.1339 94.9767L44.3274 95.0235C45.6436 95.3506 48.9496 94.8686 50.1966 93.3214C51.1788 92.1028 51.8351 90.6278 51.6904 89.9607C51.5904 89.5065 51.2604 89.1817 50.8426 88.7704Z" fill="#0DC143"/>
</g>
<defs>
<clipPath id="clip0_1_10">
<rect width="128" height="128" fill="white"/>
</clipPath>
</defs>
</svg>
